<svg xmlns="http://www.w3.org/2000/svg" viewBox="0 0 512 512">
  <rect width="512" height="512" rx="96" fill="#0a0a0a"/>
  <g transform="translate(256,280)">
    <!-- Car body -->
    <path d="M-160,0 L-140,-60 L-80,-100 L80,-100 L140,-60 L160,0 L160,30 L-160,30 Z" fill="#dc2626"/>
    <!-- Windshield -->
    <path d="M-70,-90 L-30,-90 L-50,-50 L-80,-50 Z" fill="#1a1a1a" opacity="0.8"/>
    <path d="M-20,-90 L70,-90 L80,-50 L-40,-50 Z" fill="#1a1a1a" opacity="0.8"/>
    <!-- Wheels -->
    <circle cx="-100" cy="30" r="35" fill="#1a1a1a"/>
    <circle cx="-100" cy="30" r="20" fill="#333"/>
    <circle cx="-100" cy="30" r="8" fill="#dc2626"/>
    <circle cx="100" cy="30" r="35" fill="#1a1a1a"/>
    <circle cx="100" cy="30" r="20" fill="#333"/>
    <circle cx="100" cy="30" r="8" fill="#dc2626"/>
    <!-- Headlights -->
    <rect x="145" y="-30" width="18" height="20" rx="4" fill="#fbbf24"/>
    <rect x="-163" y="-30" width="18" height="20" rx="4" fill="#fbbf24"/>
    <!-- Accent line -->
    <rect x="-150" y="-10" width="300" height="4" rx="2" fill="#ef4444" opacity="0.6"/>
  </g>
</svg>
